<?xml version="1.0" standalone="yes"?>

<svg version="1.1" viewBox="0.0 0.0 960.0 540.0" fill="none" stroke="none" stroke-linecap="square" stroke-miterlimit="10" xmlns="http://www.w3.org/2000/svg" xmlns:xlink="http://www.w3.org/1999/xlink"><clipPath id="g4aaadf1aec7664ef_298.0"><path d="m0 0l960.0 0l0 540.0l-960.0 0l0 -540.0z" clip-rule="nonzero"></path></clipPath><g clip-path="url(#g4aaadf1aec7664ef_298.0)"><path fill="#ffffff" d="m0 0l960.0 0l0 540.0l-960.0 0z" fill-rule="evenodd"></path><path fill="#000000" fill-opacity="0.0" d="m281.07086 75.04724l666.6142 0" fill-rule="evenodd"></path><path stroke="#595959" stroke-width="8.0" stroke-linejoin="round" stroke-linecap="butt" d="m281.07086 75.04724l666.6142 0" fill-rule="evenodd"></path><path fill="#000000" fill-opacity="0.0" d="m55.913387 47.88189l225.51181 0l0 70.33071l-225.51181 0z" fill-rule="evenodd"></path><path fill="#595959" d="m163.58536 79.92189l0 -17.1875l7.609375 0q2.296875 0 3.484375 0.46875q1.203125 0.46875 1.921875 1.640625q0.71875 1.171875 0.71875 2.578125q0 1.828125 -1.1875 3.09375q-1.1875 1.25 -3.65625 1.59375q0.90625 0.421875 1.375 0.84375q1.0 0.921875 1.890625 2.296875l2.984375 4.671875l-2.859375 0l-2.28125 -3.578125q-0.984375 -1.546875 -1.640625 -2.359375q-0.640625 -0.828125 -1.15625 -1.15625q-0.5 -0.328125 -1.03125 -0.453125q-0.390625 -0.078125 -1.265625 -0.078125l-2.640625 0l0 7.625l-2.265625 0zm2.265625 -9.59375l4.890625 0q1.5625 0 2.4375 -0.328125q0.875 -0.328125 1.328125 -1.03125q0.46875 -0.703125 0.46875 -1.546875q0 -1.21875 -0.890625 -2.0q-0.875 -0.78125 -2.796875 -0.78125l-5.4375 0l0 5.6875zm23.285156 5.578125l2.171875 0.28125q-0.515625 1.90625 -1.90625 2.96875q-1.390625 1.046875 -3.5625 1.046875q-2.734375 0 -4.34375 -1.671875q-1.59375 -1.6875 -1.59375 -4.734375q0 -3.140625 1.609375 -4.875q1.625 -1.734375 4.203125 -1.734375q2.5 0 4.078125 1.703125q1.59375 1.703125 1.59375 4.78125q0 0.1875 -0.015625 0.5625l-9.28125 0q0.109375 2.046875 1.15625 3.140625q1.046875 1.09375 2.609375 1.09375q1.15625 0 1.96875 -0.609375q0.828125 -0.609375 1.3125 -1.953125zm-6.9375 -3.40625l6.953125 0q-0.140625 -1.5625 -0.796875 -2.359375q-1.0 -1.21875 -2.609375 -1.21875q-1.453125 0 -2.453125 0.984375q-0.984375 0.96875 -1.09375 2.59375zm12.269531 7.421875l0 -10.8125l-1.875 0l0 -1.640625l1.875 0l0 -1.3125q0 -1.265625 0.21875 -1.875q0.296875 -0.8125 1.0625 -1.3125q0.78125 -0.515625 2.15625 -0.515625q0.890625 0 1.96875 0.203125l-0.3125 1.84375q-0.65625 -0.125 -1.25 -0.125q-0.953125 0 -1.359375 0.421875q-0.390625 0.40625 -0.390625 1.53125l0 1.140625l2.421875 0l0 1.640625l-2.421875 0l0 10.8125l-2.09375 0zm14.683594 -4.015625l2.171875 0.28125q-0.515625 1.90625 -1.90625 2.96875q-1.390625 1.046875 -3.5625 1.046875q-2.734375 0 -4.34375 -1.671875q-1.59375 -1.6875 -1.59375 -4.734375q0 -3.140625 1.609375 -4.875q1.625 -1.734375 4.203125 -1.734375q2.5 0 4.078125 1.703125q1.59375 1.703125 1.59375 4.78125q0 0.1875 -0.015625 0.5625l-9.28125 0q0.109375 2.046875 1.15625 3.140625q1.046875 1.09375 2.609375 1.09375q1.15625 0 1.96875 -0.609375q0.828125 -0.609375 1.3125 -1.953125zm-6.9375 -3.40625l6.953125 0q-0.140625 -1.5625 -0.796875 -2.359375q-1.0 -1.21875 -2.609375 -1.21875q-1.453125 0 -2.453125 0.984375q-0.984375 0.96875 -1.09375 2.59375zm11.738281 7.421875l0 -12.453125l1.890625 0l0 1.890625q0.734375 -1.328125 1.34375 -1.75q0.625 -0.421875 1.359375 -0.421875q1.0625 0 2.171875 0.6875l-0.734375 1.953125q-0.765625 -0.453125 -1.546875 -0.453125q-0.6875 0 -1.25 0.421875q-0.546875 0.40625 -0.78125 1.140625q-0.34375 1.125 -0.34375 2.46875l0 6.515625l-2.109375 0zm16.539062 -4.015625l2.171875 0.28125q-0.515625 1.90625 -1.90625 2.96875q-1.390625 1.046875 -3.5625 1.046875q-2.734375 0 -4.34375 -1.671875q-1.59375 -1.6875 -1.59375 -4.734375q0 -3.140625 1.609375 -4.875q1.625 -1.734375 4.203125 -1.734375q2.5 0 4.078125 1.703125q1.59375 1.703125 1.59375 4.78125q0 0.1875 -0.015625 0.5625l-9.28125 0q0.109375 2.046875 1.15625 3.140625q1.046875 1.09375 2.609375 1.09375q1.15625 0 1.96875 -0.609375q0.828125 -0.609375 1.3125 -1.953125zm-6.9375 -3.40625l6.953125 0q-0.140625 -1.5625 -0.796875 -2.359375q-1.0 -1.21875 -2.609375 -1.21875q-1.453125 0 -2.453125 0.984375q-0.984375 0.96875 -1.09375 2.59375zm11.753906 7.421875l0 -12.453125l1.90625 0l0 1.78125q1.375 -2.0625 3.953125 -2.0625q1.125 0 2.0625 0.40625q0.953125 0.40625 1.421875 1.0625q0.46875 0.65625 0.65625 1.5625q0.125 0.578125 0.125 2.046875l0 7.65625l-2.109375 0l0 -7.578125q0 -1.28125 -0.25 -1.921875q-0.25 -0.640625 -0.875 -1.015625q-0.625 -0.390625 -1.46875 -0.390625q-1.34375 0 -2.328125 0.859375q-0.984375 0.859375 -0.984375 3.25l0 6.796875l-2.109375 0zm21.472656 -4.5625l2.078125 0.265625q-0.34375 2.15625 -1.75 3.375q-1.390625 1.203125 -3.4375 1.203125q-2.546875 0 -4.109375 -1.671875q-1.546875 -1.671875 -1.546875 -4.78125q0 -2.015625 0.671875 -3.53125q0.671875 -1.515625 2.03125 -2.265625q1.359375 -0.765625 2.96875 -0.765625q2.03125 0 3.3125 1.03125q1.296875 1.03125 1.65625 2.90625l-2.046875 0.328125q-0.296875 -1.265625 -1.046875 -1.890625q-0.734375 -0.640625 -1.796875 -0.640625q-1.59375 0 -2.59375 1.15625q-0.984375 1.140625 -0.984375 3.609375q0 2.5 0.953125 3.640625q0.96875 1.140625 2.515625 1.140625q1.234375 0 2.0625 -0.765625q0.84375 -0.765625 1.0625 -2.34375zm12.40625 0.546875l2.171875 0.28125q-0.515625 1.90625 -1.90625 2.96875q-1.390625 1.046875 -3.5625 1.046875q-2.734375 0 -4.34375 -1.671875q-1.59375 -1.6875 -1.59375 -4.734375q0 -3.140625 1.609375 -4.875q1.625 -1.734375 4.203125 -1.734375q2.5 0 4.078125 1.703125q1.59375 1.703125 1.59375 4.78125q0 0.1875 -0.015625 0.5625l-9.28125 0q0.109375 2.046875 1.15625 3.140625q1.046875 1.09375 2.609375 1.09375q1.15625 0 1.96875 -0.609375q0.828125 -0.609375 1.3125 -1.953125zm-6.9375 -3.40625l6.953125 0q-0.140625 -1.5625 -0.796875 -2.359375q-1.0 -1.21875 -2.609375 -1.21875q-1.453125 0 -2.453125 0.984375q-0.984375 0.96875 -1.09375 2.59375z" fill-rule="nonzero"></path><path fill="#000000" fill-opacity="0.0" d="m281.07086 192.25722l666.6142 0" fill-rule="evenodd"></path><path stroke="#595959" stroke-width="8.0" stroke-linejoin="round" stroke-linecap="butt" d="m281.07086 192.25722l666.6142 0" fill-rule="evenodd"></path><path fill="#000000" fill-opacity="0.0" d="m281.07086 250.8622l666.6142 0" fill-rule="evenodd"></path><path stroke="#595959" stroke-width="8.0" stroke-linejoin="round" stroke-linecap="butt" d="m281.07086 250.8622l666.6142 0" fill-rule="evenodd"></path><path fill="#000000" fill-opacity="0.0" d="m281.07086 133.65224l666.6142 0" fill-rule="evenodd"></path><path stroke="#595959" stroke-width="8.0" stroke-linejoin="round" stroke-linecap="butt" d="m281.07086 133.65224l666.6142 0" fill-rule="evenodd"></path><path fill="#000000" fill-opacity="0.0" d="m55.913387 106.48688l225.51181 0l0 70.3307l-225.51181 0z" fill-rule="evenodd"></path><path fill="#595959" d="m225.1752 132.49562l2.28125 0.578125q-0.71875 2.796875 -2.578125 4.28125q-1.859375 1.46875 -4.546875 1.46875q-2.765625 0 -4.515625 -1.125q-1.734375 -1.140625 -2.640625 -3.28125q-0.90625 -2.15625 -0.90625 -4.609375q0 -2.6874924 1.015625 -4.6874924q1.03125 -2.0 2.921875 -3.03125q1.890625 -1.03125 4.171875 -1.03125q2.578125 0 4.328125 1.3125q1.765625 1.3125 2.453125 3.6875l-2.234375 0.53125q-0.609375 -1.875 -1.75 -2.734375q-1.125 -0.859375 -2.84375 -0.859375q-1.984375 0 -3.3125 0.953125q-1.328125 0.953125 -1.875 2.546875q-0.53125 1.5937424 -0.53125 3.2968674q0 2.1875 0.625 3.828125q0.640625 1.640625 1.984375 2.453125q1.359375 0.796875 2.921875 0.796875q1.921875 0 3.234375 -1.09375q1.328125 -1.109375 1.796875 -3.28125zm13.332031 2.015625l2.171875 0.28125q-0.515625 1.90625 -1.90625 2.96875q-1.390625 1.046875 -3.5625 1.046875q-2.734375 0 -4.34375 -1.671875q-1.59375 -1.6875 -1.59375 -4.734375q0 -3.140625 1.609375 -4.8749924q1.625 -1.734375 4.203125 -1.734375q2.5 0 4.078125 1.703125q1.59375 1.7031174 1.59375 4.7812424q0 0.1875 -0.015625 0.5625l-9.28125 0q0.109375 2.046875 1.15625 3.140625q1.046875 1.09375 2.609375 1.09375q1.15625 0 1.96875 -0.609375q0.828125 -0.609375 1.3125 -1.953125zm-6.9375 -3.40625l6.953125 0q-0.140625 -1.5625 -0.796875 -2.359375q-1.0 -1.2187424 -2.609375 -1.2187424q-1.453125 0 -2.453125 0.9843674q-0.984375 0.96875 -1.09375 2.59375zm11.707031 7.421875l0 -17.187492l2.109375 0l0 17.187492l-2.109375 0zm5.3320312 0l0 -17.187492l2.109375 0l0 17.187492l-2.109375 0zm19.40625 0l-2.109375 0l0 -13.437492q-0.75 0.71875 -2.0 1.453125q-1.234375 0.71875 -2.21875 1.078125l0 -2.03125q1.78125 -0.828125 3.09375 -2.015625q1.328125 -1.1875 1.875 -2.296875l1.359375 0l0 17.249992z" fill-rule="nonzero"></path><path fill="#e06666" d="m803.0 61.441082l0 0c0 -3.757351 3.0459595 -6.8032875 6.8032837 -6.8032875l115.11786 0c1.8043213 0 3.53479 0.716774 4.810608 1.9926376c1.2758789 1.2758636 1.9926758 3.0063057 1.9926758 4.81065l0 27.212322c0 3.7573547 -3.0459595 6.8032913 -6.8032837 6.8032913l-115.11786 0c-3.7573242 0 -6.8032837 -3.0459366 -6.8032837 -6.8032913z" fill-rule="evenodd"></path><path fill="#e06666" d="m819.4042 120.04738l0 0c0 -3.757347 3.0459595 -6.8032837 6.8032837 -6.8032837l98.708435 0c1.8043213 0 3.53479 0.716774 4.810608 1.9926376c1.2758789 1.2758636 1.9926758 3.0063019 1.9926758 4.810646l0 27.212326c0 3.7573547 -3.0459595 6.8032837 -6.8032837 6.8032837l-98.708435 0c-3.7573242 0 -6.8032837 -3.045929 -6.8032837 -6.8032837z" fill-rule="evenodd"></path><path fill="#e06666" d="m803.0 178.65106l0 0c0 -3.7573547 3.0459595 -6.803299 6.8032837 -6.803299l88.94464 0c1.8043213 0 3.534729 0.7167816 4.810608 1.9926453c1.2758789 1.2758636 1.9926758 3.0063019 1.9926758 4.8106537l0 27.212326c0 3.7573395 -3.0459595 6.8032837 -6.8032837 6.8032837l-88.94464 0l0 0c-3.7573242 0 -6.8032837 -3.0459442 -6.8032837 -6.8032837z" fill-rule="evenodd"></path><path fill="#000000" fill-opacity="0.0" d="m55.913387 165.09186l225.51181 0l0 70.33072l-225.51181 0z" fill-rule="evenodd"></path><path fill="#595959" d="m225.1752 191.10062l2.28125 0.578125q-0.71875 2.796875 -2.578125 4.28125q-1.859375 1.46875 -4.546875 1.46875q-2.765625 0 -4.515625 -1.125q-1.734375 -1.140625 -2.640625 -3.28125q-0.90625 -2.15625 -0.90625 -4.609375q0 -2.6875 1.015625 -4.6875q1.03125 -2.0 2.921875 -3.03125q1.890625 -1.03125 4.171875 -1.03125q2.578125 0 4.328125 1.3125q1.765625 1.3125 2.453125 3.6875l-2.234375 0.53125q-0.609375 -1.875 -1.75 -2.734375q-1.125 -0.859375 -2.84375 -0.859375q-1.984375 0 -3.3125 0.953125q-1.328125 0.953125 -1.875 2.546875q-0.53125 1.59375 -0.53125 3.296875q0 2.1875 0.625 3.828125q0.640625 1.640625 1.984375 2.453125q1.359375 0.796875 2.921875 0.796875q1.921875 0 3.234375 -1.09375q1.328125 -1.109375 1.796875 -3.28125zm13.332031 2.015625l2.171875 0.28125q-0.515625 1.90625 -1.90625 2.96875q-1.390625 1.046875 -3.5625 1.046875q-2.734375 0 -4.34375 -1.671875q-1.59375 -1.6875 -1.59375 -4.734375q0 -3.140625 1.609375 -4.875q1.625 -1.734375 4.203125 -1.734375q2.5 0 4.078125 1.703125q1.59375 1.703125 1.59375 4.78125q0 0.1875 -0.015625 0.5625l-9.28125 0q0.109375 2.046875 1.15625 3.140625q1.046875 1.09375 2.609375 1.09375q1.15625 0 1.96875 -0.609375q0.828125 -0.609375 1.3125 -1.953125zm-6.9375 -3.40625l6.953125 0q-0.140625 -1.5625 -0.796875 -2.359375q-1.0 -1.21875 -2.609375 -1.21875q-1.453125 0 -2.453125 0.984375q-0.984375 0.96875 -1.09375 2.59375zm11.707031 7.421875l0 -17.1875l2.109375 0l0 17.1875l-2.109375 0zm5.3320312 0l0 -17.1875l2.109375 0l0 17.1875l-2.109375 0zm22.546875 -2.03125l0 2.03125l-11.34375 0q-0.03125 -0.765625 0.234375 -1.46875q0.4375 -1.15625 1.390625 -2.28125q0.953125 -1.125 2.765625 -2.609375q2.796875 -2.296875 3.78125 -3.625q0.984375 -1.34375 0.984375 -2.546875q0 -1.25 -0.90625 -2.109375q-0.890625 -0.859375 -2.328125 -0.859375q-1.515625 0 -2.4375 0.921875q-0.90625 0.90625 -0.921875 2.515625l-2.171875 -0.21875q0.21875 -2.421875 1.671875 -3.6875q1.453125 -1.28125 3.90625 -1.28125q2.46875 0 3.90625 1.375q1.453125 1.359375 1.453125 3.390625q0 1.03125 -0.421875 2.03125q-0.421875 1.0 -1.40625 2.109375q-0.96875 1.09375 -3.25 3.015625q-1.890625 1.59375 -2.4375 2.15625q-0.53125 0.5625 -0.890625 1.140625l8.421875 0z" fill-rule="nonzero"></path><path fill="#674ea7" d="m433.7874 177.6904l0 0c0 -3.2267914 2.6158142 -5.842636 5.842621 -5.842636l23.369843 0l0 0c1.5495605 0 3.035675 0.61557007 4.131378 1.7112732c1.0957031 1.0957031 1.7112732 2.5818024 1.7112732 4.131363l0 29.133636c0 3.2267914 -2.6158447 5.842636 -5.8426514 5.842636l-23.369843 0c-3.2268066 0 -5.842621 -2.6158447 -5.842621 -5.842636z" fill-rule="evenodd"></path><path fill="#4a86e8" d="m292.95276 61.441082l0 0c0 -3.757351 3.045929 -6.8032875 6.8032837 -6.8032875l115.11783 0c1.8043518 0 3.53479 0.716774 4.810669 1.9926376c1.2758484 1.2758636 1.9926147 3.0063057 1.9926147 4.81065l0 27.212322c0 3.7573547 -3.045929 6.8032913 -6.8032837 6.8032913l-115.11783 0c-3.7573547 0 -6.8032837 -3.0459366 -6.8032837 -6.8032913z" fill-rule="evenodd"></path><path fill="#4a86e8" d="m311.41733 120.04738l0 0c0 -3.757347 3.045929 -6.8032837 6.8032837 -6.8032837l79.52728 0c1.8043518 0 3.53479 0.716774 4.8106384 1.9926376c1.2758789 1.2758636 1.9926453 3.0063019 1.9926453 4.810646l0 27.212326c0 3.7573547 -3.045929 6.8032837 -6.8032837 6.8032837l-79.52728 0c-3.7573547 0 -6.8032837 -3.045929 -6.8032837 -6.8032837z" fill-rule="evenodd"></path><path fill="#4a86e8" d="m292.95276 178.65106l0 0c0 -3.7573547 3.045929 -6.803299 6.8032837 -6.803299l105.32257 0c1.8043213 0 3.53479 0.7167816 4.8106384 1.9926453c1.2758789 1.2758636 1.9926453 3.0063019 1.9926453 4.8106537l0 27.212326c0 3.7573395 -3.045929 6.8032837 -6.8032837 6.8032837l-105.32257 0c-3.7573547 0 -6.8032837 -3.0459442 -6.8032837 -6.8032837z" fill-rule="evenodd"></path><path fill="#4a86e8" d="m292.95276 237.25735l0 0c0 -3.7573547 3.045929 -6.8032837 6.8032837 -6.8032837l105.32257 0c1.8043213 0 3.53479 0.71676636 4.8106384 1.99263c1.2758789 1.2758636 1.9926453 3.0063019 1.9926453 4.8106537l0 27.21231c0 3.7573547 -3.045929 6.803314 -6.8032837 6.803314l-105.32257 0c-3.7573547 0 -6.8032837 -3.0459595 -6.8032837 -6.803314z" fill-rule="evenodd"></path><path fill="#f1c232" d="m510.2546 61.441082l0 0c0 -3.757351 3.045929 -6.8032875 6.803253 -6.8032875l29.291077 0l0 0c1.8043213 0 3.53479 0.716774 4.810669 1.9926376c1.2758789 1.2758636 1.9926147 3.0063057 1.9926147 4.81065l0 27.212322c0 3.7573547 -3.0458984 6.8032913 -6.8032837 6.8032913l-29.291077 0c-3.7573242 0 -6.803253 -3.0459366 -6.803253 -6.8032913z" fill-rule="evenodd"></path><path fill="#f1c232" d="m518.2546 117.606384l0 0c0 -2.4092255 1.953064 -4.3622894 4.3623047 -4.3622894l17.44867 0l0 0c1.1569214 0 2.2664795 0.45959473 3.0845947 1.2776871c0.8180542 0.8180847 1.2776489 1.9276505 1.2776489 3.0846024l0 32.094315c0 2.4092255 -1.953064 4.3622894 -4.3622437 4.3622894l-17.44867 0c-2.4092407 0 -4.3623047 -1.953064 -4.3623047 -4.3622894z" fill-rule="evenodd"></path><path fill="#f1c232" d="m526.2546 234.29141l0 0c0 -2.1193085 1.7180786 -3.8373413 3.8373413 -3.8373413l15.348938 0l0 0c1.0177612 0 1.9937744 0.40428162 2.71344 1.1239319c0.7196045 0.719635 1.1239014 1.6956787 1.1239014 2.7134094l0 33.144196c0 2.1193237 -1.7180176 3.8373718 -3.8373413 3.8373718l-15.348938 0c-2.1192627 0 -3.8373413 -1.7180481 -3.8373413 -3.8373718z" fill-rule="evenodd"></path><path fill="#000000" fill-opacity="0.0" d="m55.913387 223.69685l225.51181 0l0 70.3307l-225.51181 0z" fill-rule="evenodd"></path><path fill="#595959" d="m225.1752 249.7056l2.28125 0.578125q-0.71875 2.796875 -2.578125 4.28125q-1.859375 1.46875 -4.546875 1.46875q-2.765625 0 -4.515625 -1.125q-1.734375 -1.140625 -2.640625 -3.28125q-0.90625 -2.15625 -0.90625 -4.609375q0 -2.6875 1.015625 -4.6875q1.03125 -2.0 2.921875 -3.03125q1.890625 -1.03125 4.171875 -1.03125q2.578125 0 4.328125 1.3125q1.765625 1.3125 2.453125 3.6875l-2.234375 0.53125q-0.609375 -1.875 -1.75 -2.734375q-1.125 -0.859375 -2.84375 -0.859375q-1.984375 0 -3.3125 0.953125q-1.328125 0.953125 -1.875 2.546875q-0.53125 1.59375 -0.53125 3.296875q0 2.1875 0.625 3.828125q0.640625 1.640625 1.984375 2.453125q1.359375 0.796875 2.921875 0.796875q1.921875 0 3.234375 -1.09375q1.328125 -1.109375 1.796875 -3.28125zm13.332031 2.015625l2.171875 0.28125q-0.515625 1.90625 -1.90625 2.96875q-1.390625 1.046875 -3.5625 1.046875q-2.734375 0 -4.34375 -1.671875q-1.59375 -1.6875 -1.59375 -4.734375q0 -3.140625 1.609375 -4.875q1.625 -1.734375 4.203125 -1.734375q2.5 0 4.078125 1.703125q1.59375 1.703125 1.59375 4.78125q0 0.1875 -0.015625 0.5625l-9.28125 0q0.109375 2.046875 1.15625 3.140625q1.046875 1.09375 2.609375 1.09375q1.15625 0 1.96875 -0.609375q0.828125 -0.609375 1.3125 -1.953125zm-6.9375 -3.40625l6.953125 0q-0.140625 -1.5625 -0.796875 -2.359375q-1.0 -1.21875 -2.609375 -1.21875q-1.453125 0 -2.453125 0.984375q-0.984375 0.96875 -1.09375 2.59375zm11.707031 7.421875l0 -17.1875l2.109375 0l0 17.1875l-2.109375 0zm5.3320312 0l0 -17.1875l2.109375 0l0 17.1875l-2.109375 0zm11.484375 -4.53125l2.109375 -0.28125q0.359375 1.78125 1.234375 2.578125q0.875 0.796875 2.125 0.796875q1.484375 0 2.5 -1.03125q1.03125 -1.03125 1.03125 -2.5625q0 -1.453125 -0.953125 -2.390625q-0.9375 -0.953125 -2.40625 -0.953125q-0.59375 0 -1.484375 0.234375l0.234375 -1.84375q0.203125 0.015625 0.34375 0.015625q1.34375 0 2.421875 -0.703125q1.078125 -0.703125 1.078125 -2.15625q0 -1.171875 -0.796875 -1.921875q-0.78125 -0.765625 -2.015625 -0.765625q-1.234375 0 -2.0625 0.78125q-0.8125 0.765625 -1.046875 2.3125l-2.109375 -0.375q0.390625 -2.125 1.75 -3.28125q1.375 -1.171875 3.421875 -1.171875q1.40625 0 2.578125 0.609375q1.1875 0.59375 1.8125 1.640625q0.640625 1.046875 0.640625 2.21875q0 1.109375 -0.609375 2.03125q-0.59375 0.90625 -1.765625 1.4375q1.53125 0.359375 2.375 1.46875q0.84375 1.109375 0.84375 2.765625q0 2.25 -1.640625 3.828125q-1.640625 1.5625 -4.15625 1.5625q-2.265625 0 -3.765625 -1.34375q-1.484375 -1.359375 -1.6875 -3.5z" fill-rule="nonzero"></path><path fill="#674ea7" d="m450.97638 237.25604l0 0c0 -3.7573547 3.045929 -6.8032837 6.8032837 -6.8032837l29.291077 0l0 0c1.8043213 0 3.53479 0.71676636 4.8106384 1.99263c1.2758789 1.2758636 1.9926453 3.0063019 1.9926453 4.8106537l0 27.21231c0 3.7573547 -3.045929 6.803314 -6.8032837 6.803314l-29.291077 0c-3.7573547 0 -6.8032837 -3.0459595 -6.8032837 -6.803314z" fill-rule="evenodd"></path><path fill="#000000" fill-opacity="0.0" d="m55.913387 369.87402l225.51181 0l0 46.04724l-225.51181 0z" fill-rule="evenodd"></path><path fill="#595959" d="m215.82364 395.88275l2.28125 0.578125q-0.71875 2.796875 -2.578125 4.28125q-1.859375 1.46875 -4.546875 1.46875q-2.765625 0 -4.515625 -1.125q-1.734375 -1.140625 -2.640625 -3.28125q-0.90625 -2.15625 -0.90625 -4.609375q0 -2.6875 1.015625 -4.6875q1.03125 -2.0 2.921875 -3.03125q1.890625 -1.03125 4.171875 -1.03125q2.578125 0 4.328125 1.3125q1.765625 1.3125 2.453125 3.6875l-2.234375 0.53125q-0.609375 -1.875 -1.75 -2.734375q-1.125 -0.859375 -2.84375 -0.859375q-1.984375 0 -3.3125 0.953125q-1.328125 0.953125 -1.875 2.546875q-0.53125 1.59375 -0.53125 3.296875q0 2.1875 0.625 3.828125q0.640625 1.640625 1.984375 2.453125q1.359375 0.796875 2.921875 0.796875q1.921875 0 3.234375 -1.09375q1.328125 -1.109375 1.796875 -3.28125zm4.0195312 -0.1875q0 -3.46875 1.921875 -5.125q1.609375 -1.390625 3.921875 -1.390625q2.5625 0 4.1875 1.6875q1.625 1.6875 1.625 4.640625q0 2.40625 -0.71875 3.78125q-0.71875 1.375 -2.09375 2.140625q-1.375 0.765625 -3.0 0.765625q-2.625 0 -4.234375 -1.671875q-1.609375 -1.6875 -1.609375 -4.828125zm2.171875 0q0 2.390625 1.03125 3.578125q1.046875 1.1875 2.640625 1.1875q1.5625 0 2.609375 -1.1875q1.046875 -1.203125 1.046875 -3.65625q0 -2.3125 -1.0625 -3.5q-1.046875 -1.1875 -2.59375 -1.1875q-1.59375 0 -2.640625 1.1875q-1.03125 1.1875 -1.03125 3.578125zm20.113281 6.21875l0 -1.828125q-1.453125 2.109375 -3.9375 2.109375q-1.109375 0 -2.0625 -0.421875q-0.953125 -0.421875 -1.421875 -1.0625q-0.453125 -0.640625 -0.640625 -1.5625q-0.140625 -0.625 -0.140625 -1.96875l0 -7.71875l2.109375 0l0 6.90625q0 1.65625 0.140625 2.234375q0.1875 0.828125 0.828125 1.3125q0.65625 0.46875 1.609375 0.46875q0.9375 0 1.765625 -0.484375q0.84375 -0.5 1.1875 -1.328125q0.34375 -0.84375 0.34375 -2.4375l0 -6.671875l2.109375 0l0 12.453125l-1.890625 0zm5.1914062 0l0 -12.453125l1.90625 0l0 1.78125q1.375 -2.0625 3.953125 -2.0625q1.125 0 2.0625 0.40625q0.953125 0.40625 1.421875 1.0625q0.46875 0.65625 0.65625 1.5625q0.125 0.578125 0.125 2.046875l0 7.65625l-2.109375 0l0 -7.578125q0 -1.28125 -0.25 -1.921875q-0.25 -0.640625 -0.875 -1.015625q-0.625 -0.390625 -1.46875 -0.390625q-1.34375 0 -2.328125 0.859375q-0.984375 0.859375 -0.984375 3.25l0 6.796875l-2.109375 0zm17.957031 -1.890625l0.3125 1.859375q-0.890625 0.203125 -1.59375 0.203125q-1.15625 0 -1.796875 -0.359375q-0.625 -0.375 -0.890625 -0.96875q-0.25 -0.59375 -0.25 -2.484375l0 -7.171875l-1.546875 0l0 -1.640625l1.546875 0l0 -3.078125l2.09375 -1.265625l0 4.34375l2.125 0l0 1.640625l-2.125 0l0 7.28125q0 0.90625 0.109375 1.171875q0.125 0.25 0.375 0.40625q0.25 0.140625 0.71875 0.140625q0.34375 0 0.921875 -0.078125zm2.6523438 -8.15625l0 -2.40625l2.40625 0l0 2.40625l-2.40625 0zm0 10.046875l0 -2.40625l2.40625 0l0 2.40625l-2.40625 0z" fill-rule="nonzero"></path><path fill="#000000" fill-opacity="0.0" d="m626.1181 369.87402l256.25195 0l0 46.04724l-256.25195 0z" fill-rule="evenodd"></path><path fill="#595959" d="m636.1337 397.38275l2.109375 -0.28125q0.359375 1.78125 1.234375 2.578125q0.875 0.796875 2.125 0.796875q1.484375 0 2.5 -1.03125q1.03125 -1.03125 1.03125 -2.5625q0 -1.453125 -0.953125 -2.390625q-0.9375 -0.953125 -2.40625 -0.953125q-0.59375 0 -1.484375 0.234375l0.234375 -1.84375q0.203125 0.015625 0.34375 0.015625q1.34375 0 2.421875 -0.703125q1.078125 -0.703125 1.078125 -2.15625q0 -1.171875 -0.796875 -1.921875q-0.78125 -0.765625 -2.015625 -0.765625q-1.234375 0 -2.0625 0.78125q-0.8125 0.765625 -1.046875 2.3125l-2.109375 -0.375q0.390625 -2.125 1.75 -3.28125q1.375 -1.171875 3.421875 -1.171875q1.40625 0 2.578125 0.609375q1.1875 0.59375 1.8125 1.640625q0.640625 1.046875 0.640625 2.21875q0 1.109375 -0.609375 2.03125q-0.59375 0.90625 -1.765625 1.4375q1.53125 0.359375 2.375 1.46875q0.84375 1.109375 0.84375 2.765625q0 2.25 -1.640625 3.828125q-1.640625 1.5625 -4.15625 1.5625q-2.265625 0 -3.765625 -1.34375q-1.484375 -1.359375 -1.6875 -3.5z" fill-rule="nonzero"></path><path fill="#000000" fill-opacity="0.0" d="m426.98688 369.87402l151.1181 0l0 46.04724l-151.1181 0z" fill-rule="evenodd"></path><path fill="#595959" d="m448.065 399.88275l0 2.03125l-11.34375 0q-0.03125 -0.765625 0.234375 -1.46875q0.4375 -1.15625 1.390625 -2.28125q0.953125 -1.125 2.765625 -2.609375q2.796875 -2.296875 3.78125 -3.625q0.984375 -1.34375 0.984375 -2.546875q0 -1.25 -0.90625 -2.109375q-0.890625 -0.859375 -2.328125 -0.859375q-1.515625 0 -2.4375 0.921875q-0.90625 0.90625 -0.921875 2.515625l-2.171875 -0.21875q0.21875 -2.421875 1.671875 -3.6875q1.453125 -1.28125 3.90625 -1.28125q2.46875 0 3.90625 1.375q1.453125 1.359375 1.453125 3.390625q0 1.03125 -0.421875 2.03125q-0.421875 1.0 -1.40625 2.109375q-0.96875 1.09375 -3.25 3.015625q-1.890625 1.59375 -2.4375 2.15625q-0.53125 0.5625 -0.890625 1.140625l8.421875 0z" fill-rule="nonzero"></path><path fill="#000000" fill-opacity="0.0" d="m55.913387 415.92126l225.51181 0l0 46.04724l-225.51181 0z" fill-rule="evenodd"></path><path fill="#595959" d="m173.46036 442.44565l2.140625 -0.1875q0.15625 1.28125 0.703125 2.109375q0.5625 0.828125 1.734375 1.34375q1.171875 0.5 2.640625 0.5q1.296875 0 2.296875 -0.375q1.0 -0.390625 1.484375 -1.0625q0.484375 -0.6875 0.484375 -1.484375q0 -0.796875 -0.46875 -1.40625q-0.46875 -0.609375 -1.546875 -1.015625q-0.6875 -0.265625 -3.0625 -0.828125q-2.359375 -0.578125 -3.3125 -1.078125q-1.234375 -0.640625 -1.84375 -1.59375q-0.59375 -0.96875 -0.59375 -2.140625q0 -1.3125 0.734375 -2.4375q0.75 -1.125 2.15625 -1.703125q1.421875 -0.59375 3.15625 -0.59375q1.90625 0 3.359375 0.609375q1.46875 0.609375 2.25 1.8125q0.796875 1.1875 0.84375 2.703125l-2.171875 0.171875q-0.171875 -1.640625 -1.1875 -2.46875q-1.015625 -0.828125 -3.0 -0.828125q-2.0625 0 -3.015625 0.765625q-0.9375 0.75 -0.9375 1.8125q0 0.921875 0.671875 1.515625q0.65625 0.609375 3.421875 1.234375q2.78125 0.625 3.8125 1.09375q1.5 0.6875 2.203125 1.75q0.71875 1.0625 0.71875 2.4375q0 1.375 -0.78125 2.59375q-0.78125 1.203125 -2.25 1.890625q-1.46875 0.671875 -3.3125 0.671875q-2.328125 0 -3.90625 -0.671875q-1.578125 -0.6875 -2.484375 -2.046875q-0.890625 -1.375 -0.9375 -3.09375zm24.632812 3.984375q-1.171875 0.984375 -2.265625 1.40625q-1.078125 0.40625 -2.3125 0.40625q-2.046875 0 -3.15625 -1.0q-1.09375 -1.0 -1.09375 -2.5625q0 -0.921875 0.40625 -1.671875q0.421875 -0.75 1.09375 -1.203125q0.671875 -0.46875 1.515625 -0.703125q0.625 -0.15625 1.875 -0.3125q2.5625 -0.3125 3.765625 -0.734375q0.015625 -0.421875 0.015625 -0.546875q0 -1.28125 -0.609375 -1.8125q-0.796875 -0.71875 -2.390625 -0.71875q-1.5 0 -2.203125 0.53125q-0.703125 0.515625 -1.046875 1.84375l-2.0625 -0.28125q0.28125 -1.328125 0.921875 -2.140625q0.640625 -0.8125 1.859375 -1.25q1.21875 -0.453125 2.828125 -0.453125q1.59375 0 2.59375 0.375q1.0 0.375 1.46875 0.953125q0.46875 0.5625 0.65625 1.4375q0.09375 0.53125 0.09375 1.9375l0 2.8125q0 2.9375 0.140625 3.71875q0.140625 0.78125 0.53125 1.5l-2.203125 0q-0.328125 -0.65625 -0.421875 -1.53125zm-0.171875 -4.71875q-1.15625 0.46875 -3.453125 0.796875q-1.296875 0.1875 -1.84375 0.421875q-0.53125 0.234375 -0.828125 0.6875q-0.28125 0.453125 -0.28125 1.0q0 0.84375 0.625 1.40625q0.640625 0.5625 1.875 0.5625q1.21875 0 2.171875 -0.53125q0.953125 -0.53125 1.390625 -1.453125q0.34375 -0.71875 0.34375 -2.109375l0 -0.78125zm5.3945312 6.25l0 -12.453125l1.890625 0l0 1.75q0.59375 -0.90625 1.5625 -1.46875q0.96875 -0.5625 2.21875 -0.5625q1.375 0 2.25 0.578125q0.890625 0.578125 1.265625 1.609375q1.46875 -2.1875 3.84375 -2.1875q1.84375 0 2.84375 1.03125q1.0 1.03125 1.0 3.15625l0 8.546875l-2.109375 0l0 -7.84375q0 -1.265625 -0.203125 -1.8125q-0.203125 -0.5625 -0.75 -0.90625q-0.53125 -0.34375 -1.25 -0.34375q-1.3125 0 -2.1875 0.875q-0.859375 0.875 -0.859375 2.796875l0 7.234375l-2.109375 0l0 -8.09375q0 -1.40625 -0.515625 -2.109375q-0.515625 -0.703125 -1.6875 -0.703125q-0.890625 0 -1.65625 0.46875q-0.75 0.46875 -1.09375 1.375q-0.34375 0.90625 -0.34375 2.609375l0 6.453125l-2.109375 0zm19.992188 4.765625l0 -17.21875l1.921875 0l0 1.625q0.6875 -0.953125 1.53125 -1.421875q0.859375 -0.484375 2.078125 -0.484375q1.59375 0 2.8125 0.828125q1.21875 0.8125 1.84375 2.3125q0.625 1.5 0.625 3.28125q0 1.90625 -0.6875 3.4375q-0.6875 1.53125 -2.0 2.34375q-1.296875 0.8125 -2.734375 0.8125q-1.0625 0 -1.90625 -0.4375q-0.828125 -0.453125 -1.375 -1.140625l0 6.0625l-2.109375 0zm1.921875 -10.921875q0 2.40625 0.96875 3.5625q0.96875 1.140625 2.359375 1.140625q1.40625 0 2.40625 -1.1875q1.0 -1.1875 1.0 -3.6875q0 -2.375 -0.984375 -3.5625q-0.96875 -1.1875 -2.328125 -1.1875q-1.359375 0 -2.390625 1.265625q-1.03125 1.25 -1.03125 3.65625zm11.378906 6.15625l0 -17.1875l2.109375 0l0 17.1875l-2.109375 0zm13.910156 -4.015625l2.171875 0.28125q-0.515625 1.90625 -1.90625 2.96875q-1.390625 1.046875 -3.5625 1.046875q-2.734375 0 -4.34375 -1.671875q-1.59375 -1.6875 -1.59375 -4.734375q0 -3.140625 1.609375 -4.875q1.625 -1.734375 4.203125 -1.734375q2.5 0 4.078125 1.703125q1.59375 1.703125 1.59375 4.78125q0 0.1875 -0.015625 0.5625l-9.28125 0q0.109375 2.046875 1.15625 3.140625q1.046875 1.09375 2.609375 1.09375q1.15625 0 1.96875 -0.609375q0.828125 -0.609375 1.3125 -1.953125zm-6.9375 -3.40625l6.953125 0q-0.140625 -1.5625 -0.796875 -2.359375q-1.0 -1.21875 -2.609375 -1.21875q-1.453125 0 -2.453125 0.984375q-0.984375 0.96875 -1.09375 2.59375zm10.910156 3.703125l2.09375 -0.328125q0.171875 1.25 0.96875 1.921875q0.8125 0.671875 2.25 0.671875q1.453125 0 2.15625 -0.59375q0.703125 -0.59375 0.703125 -1.390625q0 -0.71875 -0.625 -1.125q-0.421875 -0.28125 -2.15625 -0.71875q-2.3125 -0.578125 -3.21875 -1.0q-0.890625 -0.4375 -1.359375 -1.1875q-0.453125 -0.765625 -0.453125 -1.671875q0 -0.828125 0.375 -1.53125q0.390625 -0.71875 1.046875 -1.1875q0.484375 -0.359375 1.328125 -0.609375q0.859375 -0.265625 1.828125 -0.265625q1.46875 0 2.578125 0.421875q1.109375 0.421875 1.625 1.15625q0.53125 0.71875 0.734375 1.921875l-2.0625 0.28125q-0.140625 -0.96875 -0.8125 -1.5q-0.671875 -0.546875 -1.90625 -0.546875q-1.453125 0 -2.078125 0.484375q-0.625 0.484375 -0.625 1.125q0 0.40625 0.265625 0.734375q0.25 0.34375 0.8125 0.5625q0.3125 0.125 1.859375 0.546875q2.234375 0.59375 3.109375 0.984375q0.890625 0.375 1.390625 1.109375q0.515625 0.71875 0.515625 1.796875q0 1.046875 -0.625 1.984375q-0.609375 0.9375 -1.765625 1.453125q-1.15625 0.5 -2.625 0.5q-2.421875 0 -3.703125 -1.0q-1.265625 -1.015625 -1.625 -3.0zm13.4375 -6.328125l0 -2.40625l2.40625 0l0 2.40625l-2.40625 0zm0 10.046875l0 -2.40625l2.40625 0l0 2.40625l-2.40625 0z" fill-rule="nonzero"></path><path fill="#000000" fill-opacity="0.0" d="m626.1181 415.92126l256.25195 0l0 46.04724l-256.25195 0z" fill-rule="evenodd"></path><path fill="#595959" d="m649.2275 441.93002l2.28125 0.578125q-0.71875 2.796875 -2.578125 4.28125q-1.859375 1.46875 -4.546875 1.46875q-2.765625 0 -4.515625 -1.125q-1.734375 -1.140625 -2.640625 -3.28125q-0.90625 -2.15625 -0.90625 -4.609375q0 -2.6875 1.015625 -4.6875q1.03125 -2.0 2.921875 -3.03125q1.890625 -1.03125 4.171875 -1.03125q2.578125 0 4.328125 1.3125q1.765625 1.3125 2.453125 3.6875l-2.234375 0.53125q-0.609375 -1.875 -1.75 -2.734375q-1.125 -0.859375 -2.84375 -0.859375q-1.984375 0 -3.3125 0.953125q-1.328125 0.953125 -1.875 2.546875q-0.53125 1.59375 -0.53125 3.296875q0 2.1875 0.625 3.828125q0.640625 1.640625 1.984375 2.453125q1.359375 0.796875 2.921875 0.796875q1.921875 0 3.234375 -1.09375q1.328125 -1.109375 1.796875 -3.28125zm13.332031 2.015625l2.171875 0.28125q-0.515625 1.90625 -1.90625 2.96875q-1.390625 1.046875 -3.5625 1.046875q-2.734375 0 -4.34375 -1.671875q-1.59375 -1.6875 -1.59375 -4.734375q0 -3.140625 1.609375 -4.875q1.625 -1.734375 4.203125 -1.734375q2.5 0 4.078125 1.703125q1.59375 1.703125 1.59375 4.78125q0 0.1875 -0.015625 0.5625l-9.28125 0q0.109375 2.046875 1.15625 3.140625q1.046875 1.09375 2.609375 1.09375q1.15625 0 1.96875 -0.609375q0.828125 -0.609375 1.3125 -1.953125zm-6.9375 -3.40625l6.953125 0q-0.140625 -1.5625 -0.796875 -2.359375q-1.0 -1.21875 -2.609375 -1.21875q-1.453125 0 -2.453125 0.984375q-0.984375 0.96875 -1.09375 2.59375zm11.707031 7.421875l0 -17.1875l2.109375 0l0 17.1875l-2.109375 0zm5.3320312 0l0 -17.1875l2.109375 0l0 17.1875l-2.109375 0zm3.4414062 4.765625l0 -1.515625l13.984375 0l0 1.515625l-13.984375 0zm22.644531 -4.765625l-2.109375 0l0 -13.4375q-0.75 0.71875 -2.0 1.453125q-1.234375 0.71875 -2.21875 1.078125l0 -2.03125q1.78125 -0.828125 3.09375 -2.015625q1.328125 -1.1875 1.875 -2.296875l1.359375 0l0 17.25zm6.5507812 0l0 -2.40625l2.390625 0l0 2.40625q0 1.328125 -0.46875 2.140625q-0.46875 0.8125 -1.484375 1.265625l-0.578125 -0.90625q0.65625 -0.296875 0.96875 -0.875q0.328125 -0.5625 0.359375 -1.625l-1.1875 0zm25.304688 -6.03125l2.28125 0.578125q-0.71875 2.796875 -2.578125 4.28125q-1.859375 1.46875 -4.546875 1.46875q-2.765625 0 -4.515625 -1.125q-1.734375 -1.140625 -2.640625 -3.28125q-0.90625 -2.15625 -0.90625 -4.609375q0 -2.6875 1.015625 -4.6875q1.03125 -2.0 2.921875 -3.03125q1.890625 -1.03125 4.171875 -1.03125q2.578125 0 4.328125 1.3125q1.765625 1.3125 2.453125 3.6875l-2.234375 0.53125q-0.609375 -1.875 -1.75 -2.734375q-1.125 -0.859375 -2.84375 -0.859375q-1.984375 0 -3.3125 0.953125q-1.328125 0.953125 -1.875 2.546875q-0.53125 1.59375 -0.53125 3.296875q0 2.1875 0.625 3.828125q0.640625 1.640625 1.984375 2.453125q1.359375 0.796875 2.921875 0.796875q1.921875 0 3.234375 -1.09375q1.328125 -1.109375 1.796875 -3.28125zm13.332031 2.015625l2.171875 0.28125q-0.515625 1.90625 -1.90625 2.96875q-1.390625 1.046875 -3.5625 1.046875q-2.734375 0 -4.34375 -1.671875q-1.59375 -1.6875 -1.59375 -4.734375q0 -3.140625 1.609375 -4.875q1.625 -1.734375 4.203125 -1.734375q2.5 0 4.078125 1.703125q1.59375 1.703125 1.59375 4.78125q0 0.1875 -0.015625 0.5625l-9.28125 0q0.109375 2.046875 1.15625 3.140625q1.046875 1.09375 2.609375 1.09375q1.15625 0 1.96875 -0.609375q0.828125 -0.609375 1.3125 -1.953125zm-6.9375 -3.40625l6.953125 0q-0.140625 -1.5625 -0.796875 -2.359375q-1.0 -1.21875 -2.609375 -1.21875q-1.453125 0 -2.453125 0.984375q-0.984375 0.96875 -1.09375 2.59375zm11.707031 7.421875l0 -17.1875l2.109375 0l0 17.1875l-2.109375 0zm5.3320312 0l0 -17.1875l2.109375 0l0 17.1875l-2.109375 0zm3.4414062 4.765625l0 -1.515625l13.984375 0l0 1.515625l-13.984375 0zm25.785156 -6.796875l0 2.03125l-11.34375 0q-0.03125 -0.765625 0.234375 -1.46875q0.4375 -1.15625 1.390625 -2.28125q0.953125 -1.125 2.765625 -2.609375q2.796875 -2.296875 3.78125 -3.625q0.984375 -1.34375 0.984375 -2.546875q0 -1.25 -0.90625 -2.109375q-0.890625 -0.859375 -2.328125 -0.859375q-1.515625 0 -2.4375 0.921875q-0.90625 0.90625 -0.921875 2.515625l-2.171875 -0.21875q0.21875 -2.421875 1.671875 -3.6875q1.453125 -1.28125 3.90625 -1.28125q2.46875 0 3.90625 1.375q1.453125 1.359375 1.453125 3.390625q0 1.03125 -0.421875 2.03125q-0.421875 1.0 -1.40625 2.109375q-0.96875 1.09375 -3.25 3.015625q-1.890625 1.59375 -2.4375 2.15625q-0.53125 0.5625 -0.890625 1.140625l8.421875 0zm3.4101562 2.03125l0 -2.40625l2.390625 0l0 2.40625q0 1.328125 -0.46875 2.140625q-0.46875 0.8125 -1.484375 1.265625l-0.578125 -0.90625q0.65625 -0.296875 0.96875 -0.875q0.328125 -0.5625 0.359375 -1.625l-1.1875 0zm25.304688 -6.03125l2.28125 0.578125q-0.71875 2.796875 -2.578125 4.28125q-1.859375 1.46875 -4.546875 1.46875q-2.765625 0 -4.515625 -1.125q-1.734375 -1.140625 -2.640625 -3.28125q-0.90625 -2.15625 -0.90625 -4.609375q0 -2.6875 1.015625 -4.6875q1.03125 -2.0 2.921875 -3.03125q1.890625 -1.03125 4.171875 -1.03125q2.578125 0 4.328125 1.3125q1.765625 1.3125 2.453125 3.6875l-2.234375 0.53125q-0.609375 -1.875 -1.75 -2.734375q-1.125 -0.859375 -2.84375 -0.859375q-1.984375 0 -3.3125 0.953125q-1.328125 0.953125 -1.875 2.546875q-0.53125 1.59375 -0.53125 3.296875q0 2.1875 0.625 3.828125q0.640625 1.640625 1.984375 2.453125q1.359375 0.796875 2.921875 0.796875q1.921875 0 3.234375 -1.09375q1.328125 -1.109375 1.796875 -3.28125zm13.332031 2.015625l2.171875 0.28125q-0.515625 1.90625 -1.90625 2.96875q-1.390625 1.046875 -3.5625 1.046875q-2.734375 0 -4.34375 -1.671875q-1.59375 -1.6875 -1.59375 -4.734375q0 -3.140625 1.609375 -4.875q1.625 -1.734375 4.203125 -1.734375q2.5 0 4.078125 1.703125q1.59375 1.703125 1.59375 4.78125q0 0.1875 -0.015625 0.5625l-9.28125 0q0.109375 2.046875 1.15625 3.140625q1.046875 1.09375 2.609375 1.09375q1.15625 0 1.96875 -0.609375q0.828125 -0.609375 1.3125 -1.953125zm-6.9375 -3.40625l6.953125 0q-0.140625 -1.5625 -0.796875 -2.359375q-1.0 -1.21875 -2.609375 -1.21875q-1.453125 0 -2.453125 0.984375q-0.984375 0.96875 -1.09375 2.59375zm11.707031 7.421875l0 -17.1875l2.109375 0l0 17.1875l-2.109375 0zm5.3320312 0l0 -17.1875l2.109375 0l0 17.1875l-2.109375 0zm3.4414062 4.765625l0 -1.515625l13.984375 0l0 1.515625l-13.984375 0zm14.722656 -9.296875l2.109375 -0.28125q0.359375 1.78125 1.234375 2.578125q0.875 0.796875 2.125 0.796875q1.484375 0 2.5 -1.03125q1.03125 -1.03125 1.03125 -2.5625q0 -1.453125 -0.953125 -2.390625q-0.9375 -0.953125 -2.40625 -0.953125q-0.59375 0 -1.484375 0.234375l0.234375 -1.84375q0.203125 0.015625 0.34375 0.015625q1.34375 0 2.421875 -0.703125q1.078125 -0.703125 1.078125 -2.15625q0 -1.171875 -0.796875 -1.921875q-0.78125 -0.765625 -2.015625 -0.765625q-1.234375 0 -2.0625 0.78125q-0.8125 0.765625 -1.046875 2.3125l-2.109375 -0.375q0.390625 -2.125 1.75 -3.28125q1.375 -1.171875 3.421875 -1.171875q1.40625 0 2.578125 0.609375q1.1875 0.59375 1.8125 1.640625q0.640625 1.046875 0.640625 2.21875q0 1.109375 -0.609375 2.03125q-0.59375 0.90625 -1.765625 1.4375q1.53125 0.359375 2.375 1.46875q0.84375 1.109375 0.84375 2.765625q0 2.25 -1.640625 3.828125q-1.640625 1.5625 -4.15625 1.5625q-2.265625 0 -3.765625 -1.34375q-1.484375 -1.359375 -1.6875 -3.5z" fill-rule="nonzero"></path><path fill="#000000" fill-opacity="0.0" d="m426.98688 415.92126l206.6142 0l0 46.04724l-206.6142 0z" fill-rule="evenodd"></path><path fill="#595959" d="m450.09625 441.93002l2.28125 0.578125q-0.71875 2.796875 -2.578125 4.28125q-1.859375 1.46875 -4.546875 1.46875q-2.765625 0 -4.515625 -1.125q-1.734375 -1.140625 -2.640625 -3.28125q-0.90625 -2.15625 -0.90625 -4.609375q0 -2.6875 1.015625 -4.6875q1.03125 -2.0 2.921875 -3.03125q1.890625 -1.03125 4.171875 -1.03125q2.578125 0 4.328125 1.3125q1.765625 1.3125 2.453125 3.6875l-2.234375 0.53125q-0.609375 -1.875 -1.75 -2.734375q-1.125 -0.859375 -2.84375 -0.859375q-1.984375 0 -3.3125 0.953125q-1.328125 0.953125 -1.875 2.546875q-0.53125 1.59375 -0.53125 3.296875q0 2.1875 0.625 3.828125q0.640625 1.640625 1.984375 2.453125q1.359375 0.796875 2.921875 0.796875q1.921875 0 3.234375 -1.09375q1.328125 -1.109375 1.796875 -3.28125zm13.332031 2.015625l2.171875 0.28125q-0.515625 1.90625 -1.90625 2.96875q-1.390625 1.046875 -3.5625 1.046875q-2.734375 0 -4.34375 -1.671875q-1.59375 -1.6875 -1.59375 -4.734375q0 -3.140625 1.609375 -4.875q1.625 -1.734375 4.203125 -1.734375q2.5 0 4.078125 1.703125q1.59375 1.703125 1.59375 4.78125q0 0.1875 -0.015625 0.5625l-9.28125 0q0.109375 2.046875 1.15625 3.140625q1.046875 1.09375 2.609375 1.09375q1.15625 0 1.96875 -0.609375q0.828125 -0.609375 1.3125 -1.953125zm-6.9375 -3.40625l6.953125 0q-0.140625 -1.5625 -0.796875 -2.359375q-1.0 -1.21875 -2.609375 -1.21875q-1.453125 0 -2.453125 0.984375q-0.984375 0.96875 -1.09375 2.59375zm11.707031 7.421875l0 -17.1875l2.109375 0l0 17.1875l-2.109375 0zm5.3320312 0l0 -17.1875l2.109375 0l0 17.1875l-2.109375 0zm3.4414062 4.765625l0 -1.515625l13.984375 0l0 1.515625l-13.984375 0zm25.785156 -6.796875l0 2.03125l-11.34375 0q-0.03125 -0.765625 0.234375 -1.46875q0.4375 -1.15625 1.390625 -2.28125q0.953125 -1.125 2.765625 -2.609375q2.796875 -2.296875 3.78125 -3.625q0.984375 -1.34375 0.984375 -2.546875q0 -1.25 -0.90625 -2.109375q-0.890625 -0.859375 -2.328125 -0.859375q-1.515625 0 -2.4375 0.921875q-0.90625 0.90625 -0.921875 2.515625l-2.171875 -0.21875q0.21875 -2.421875 1.671875 -3.6875q1.453125 -1.28125 3.90625 -1.28125q2.46875 0 3.90625 1.375q1.453125 1.359375 1.453125 3.390625q0 1.03125 -0.421875 2.03125q-0.421875 1.0 -1.40625 2.109375q-0.96875 1.09375 -3.25 3.015625q-1.890625 1.59375 -2.4375 2.15625q-0.53125 0.5625 -0.890625 1.140625l8.421875 0zm3.4101562 2.03125l0 -2.40625l2.390625 0l0 2.40625q0 1.328125 -0.46875 2.140625q-0.46875 0.8125 -1.484375 1.265625l-0.578125 -0.90625q0.65625 -0.296875 0.96875 -0.875q0.328125 -0.5625 0.359375 -1.625l-1.1875 0zm25.304688 -6.03125l2.28125 0.578125q-0.71875 2.796875 -2.578125 4.28125q-1.859375 1.46875 -4.546875 1.46875q-2.765625 0 -4.515625 -1.125q-1.734375 -1.140625 -2.640625 -3.28125q-0.90625 -2.15625 -0.90625 -4.609375q0 -2.6875 1.015625 -4.6875q1.03125 -2.0 2.921875 -3.03125q1.890625 -1.03125 4.171875 -1.03125q2.578125 0 4.328125 1.3125q1.765625 1.3125 2.453125 3.6875l-2.234375 0.53125q-0.609375 -1.875 -1.75 -2.734375q-1.125 -0.859375 -2.84375 -0.859375q-1.984375 0 -3.3125 0.953125q-1.328125 0.953125 -1.875 2.546875q-0.53125 1.59375 -0.53125 3.296875q0 2.1875 0.625 3.828125q0.640625 1.640625 1.984375 2.453125q1.359375 0.796875 2.921875 0.796875q1.921875 0 3.234375 -1.09375q1.328125 -1.109375 1.796875 -3.28125zm13.332031 2.015625l2.171875 0.28125q-0.515625 1.90625 -1.90625 2.96875q-1.390625 1.046875 -3.5625 1.046875q-2.734375 0 -4.34375 -1.671875q-1.59375 -1.6875 -1.59375 -4.734375q0 -3.140625 1.609375 -4.875q1.625 -1.734375 4.203125 -1.734375q2.5 0 4.078125 1.703125q1.59375 1.703125 1.59375 4.78125q0 0.1875 -0.015625 0.5625l-9.28125 0q0.109375 2.046875 1.15625 3.140625q1.046875 1.09375 2.609375 1.09375q1.15625 0 1.96875 -0.609375q0.828125 -0.609375 1.3125 -1.953125zm-6.9375 -3.40625l6.953125 0q-0.140625 -1.5625 -0.796875 -2.359375q-1.0 -1.21875 -2.609375 -1.21875q-1.453125 0 -2.453125 0.984375q-0.984375 0.96875 -1.09375 2.59375zm11.707031 7.421875l0 -17.1875l2.109375 0l0 17.1875l-2.109375 0zm5.3320312 0l0 -17.1875l2.109375 0l0 17.1875l-2.109375 0zm3.4414062 4.765625l0 -1.515625l13.984375 0l0 1.515625l-13.984375 0zm14.722656 -9.296875l2.109375 -0.28125q0.359375 1.78125 1.234375 2.578125q0.875 0.796875 2.125 0.796875q1.484375 0 2.5 -1.03125q1.03125 -1.03125 1.03125 -2.5625q0 -1.453125 -0.953125 -2.390625q-0.9375 -0.953125 -2.40625 -0.953125q-0.59375 0 -1.484375 0.234375l0.234375 -1.84375q0.203125 0.015625 0.34375 0.015625q1.34375 0 2.421875 -0.703125q1.078125 -0.703125 1.078125 -2.15625q0 -1.171875 -0.796875 -1.921875q-0.78125 -0.765625 -2.015625 -0.765625q-1.234375 0 -2.0625 0.78125q-0.8125 0.765625 -1.046875 2.3125l-2.109375 -0.375q0.390625 -2.125 1.75 -3.28125q1.375 -1.171875 3.421875 -1.171875q1.40625 0 2.578125 0.609375q1.1875 0.59375 1.8125 1.640625q0.640625 1.046875 0.640625 2.21875q0 1.109375 -0.609375 2.03125q-0.59375 0.90625 -1.765625 1.4375q1.53125 0.359375 2.375 1.46875q0.84375 1.109375 0.84375 2.765625q0 2.25 -1.640625 3.828125q-1.640625 1.5625 -4.15625 1.5625q-2.265625 0 -3.765625 -1.34375q-1.484375 -1.359375 -1.6875 -3.5z" fill-rule="nonzero"></path><path fill="#000000" fill-opacity="0.0" d="m55.913387 461.9685l225.51181 0l0 46.04724l-225.51181 0z" fill-rule="evenodd"></path><path fill="#595959" d="m191.57364 494.0085l0 -17.1875l6.46875 0q1.71875 0 2.625 0.171875q1.265625 0.203125 2.109375 0.796875q0.859375 0.59375 1.375 1.671875q0.53125 1.0625 0.53125 2.328125q0 2.203125 -1.40625 3.71875q-1.390625 1.515625 -5.03125 1.515625l-4.40625 0l0 6.984375l-2.265625 0zm2.265625 -9.015625l4.4375 0q2.203125 0 3.125 -0.8125q0.9375 -0.828125 0.9375 -2.3125q0 -1.078125 -0.546875 -1.84375q-0.546875 -0.765625 -1.4375 -1.015625q-0.578125 -0.15625 -2.125 -0.15625l-4.390625 0l0 6.140625zm13.4453125 9.015625l0 -12.453125l1.890625 0l0 1.890625q0.734375 -1.328125 1.34375 -1.75q0.625 -0.421875 1.359375 -0.421875q1.0625 0 2.171875 0.6875l-0.734375 1.953125q-0.765625 -0.453125 -1.546875 -0.453125q-0.6875 0 -1.25 0.421875q-0.546875 0.40625 -0.78125 1.140625q-0.34375 1.125 -0.34375 2.46875l0 6.515625l-2.109375 0zm7.2265625 -6.21875q0 -3.46875 1.921875 -5.125q1.609375 -1.390625 3.921875 -1.390625q2.5625 0 4.1875 1.6875q1.625 1.6875 1.625 4.640625q0 2.40625 -0.71875 3.78125q-0.71875 1.375 -2.09375 2.140625q-1.375 0.765625 -3.0 0.765625q-2.625 0 -4.234375 -1.671875q-1.609375 -1.6875 -1.609375 -4.828125zm2.171875 0q0 2.390625 1.03125 3.578125q1.046875 1.1875 2.640625 1.1875q1.5625 0 2.609375 -1.1875q1.046875 -1.203125 1.046875 -3.65625q0 -2.3125 -1.0625 -3.5q-1.046875 -1.1875 -2.59375 -1.1875q-1.59375 0 -2.640625 1.1875q-1.03125 1.1875 -1.03125 3.578125zm16.566406 4.328125l0.3125 1.859375q-0.890625 0.203125 -1.59375 0.203125q-1.15625 0 -1.796875 -0.359375q-0.625 -0.375 -0.890625 -0.96875q-0.25 -0.59375 -0.25 -2.484375l0 -7.171875l-1.546875 0l0 -1.640625l1.546875 0l0 -3.078125l2.09375 -1.265625l0 4.34375l2.125 0l0 1.640625l-2.125 0l0 7.28125q0 0.90625 0.109375 1.171875q0.125 0.25 0.375 0.40625q0.25 0.140625 0.71875 0.140625q0.34375 0 0.921875 -0.078125zm10.589844 -2.125l2.171875 0.28125q-0.515625 1.90625 -1.90625 2.96875q-1.390625 1.046875 -3.5625 1.046875q-2.734375 0 -4.34375 -1.671875q-1.59375 -1.6875 -1.59375 -4.734375q0 -3.140625 1.609375 -4.875q1.625 -1.734375 4.203125 -1.734375q2.5 0 4.078125 1.703125q1.59375 1.703125 1.59375 4.78125q0 0.1875 -0.015625 0.5625l-9.28125 0q0.109375 2.046875 1.15625 3.140625q1.046875 1.09375 2.609375 1.09375q1.15625 0 1.96875 -0.609375q0.828125 -0.609375 1.3125 -1.953125zm-6.9375 -3.40625l6.953125 0q-0.140625 -1.5625 -0.796875 -2.359375q-1.0 -1.21875 -2.609375 -1.21875q-1.453125 0 -2.453125 0.984375q-0.984375 0.96875 -1.09375 2.59375zm11.769531 -7.328125l0 -2.4375l2.109375 0l0 2.4375l-2.109375 0zm0 14.75l0 -12.453125l2.109375 0l0 12.453125l-2.109375 0zm5.3164062 0l0 -12.453125l1.90625 0l0 1.78125q1.375 -2.0625 3.953125 -2.0625q1.125 0 2.0625 0.40625q0.953125 0.40625 1.421875 1.0625q0.46875 0.65625 0.65625 1.5625q0.125 0.578125 0.125 2.046875l0 7.65625l-2.109375 0l0 -7.578125q0 -1.28125 -0.25 -1.921875q-0.25 -0.640625 -0.875 -1.015625q-0.625 -0.390625 -1.46875 -0.390625q-1.34375 0 -2.328125 0.859375q-0.984375 0.859375 -0.984375 3.25l0 6.796875l-2.109375 0zm13.941406 -10.046875l0 -2.40625l2.40625 0l0 2.40625l-2.40625 0zm0 10.046875l0 -2.40625l2.40625 0l0 2.40625l-2.40625 0z" fill-rule="nonzero"></path><path fill="#000000" fill-opacity="0.0" d="m626.1181 461.9685l256.25195 0l0 46.04724l-256.25195 0z" fill-rule="evenodd"></path><path fill="#595959" d="m636.9775 494.0085l0 -17.1875l6.46875 0q1.71875 0 2.625 0.171875q1.265625 0.203125 2.109375 0.796875q0.859375 0.59375 1.375 1.671875q0.53125 1.0625 0.53125 2.328125q0 2.203125 -1.40625 3.71875q-1.390625 1.515625 -5.03125 1.515625l-4.40625 0l0 6.984375l-2.265625 0zm2.265625 -9.015625l4.4375 0q2.203125 0 3.125 -0.8125q0.9375 -0.828125 0.9375 -2.3125q0 -1.078125 -0.546875 -1.84375q-0.546875 -0.765625 -1.4375 -1.015625q-0.578125 -0.15625 -2.125 -0.15625l-4.390625 0l0 6.140625zm13.4453125 9.015625l0 -12.453125l1.890625 0l0 1.890625q0.734375 -1.328125 1.34375 -1.75q0.625 -0.421875 1.359375 -0.421875q1.0625 0 2.171875 0.6875l-0.734375 1.953125q-0.765625 -0.453125 -1.546875 -0.453125q-0.6875 0 -1.25 0.421875q-0.546875 0.40625 -0.78125 1.140625q-0.34375 1.125 -0.34375 2.46875l0 6.515625l-2.109375 0zm7.2265625 -6.21875q0 -3.46875 1.921875 -5.125q1.609375 -1.390625 3.921875 -1.390625q2.5625 0 4.1875 1.6875q1.625 1.6875 1.625 4.640625q0 2.40625 -0.71875 3.78125q-0.71875 1.375 -2.09375 2.140625q-1.375 0.765625 -3.0 0.765625q-2.625 0 -4.234375 -1.671875q-1.609375 -1.6875 -1.609375 -4.828125zm2.171875 0q0 2.390625 1.03125 3.578125q1.046875 1.1875 2.640625 1.1875q1.5625 0 2.609375 -1.1875q1.046875 -1.203125 1.046875 -3.65625q0 -2.3125 -1.0625 -3.5q-1.046875 -1.1875 -2.59375 -1.1875q-1.59375 0 -2.640625 1.1875q-1.03125 1.1875 -1.03125 3.578125zm16.566406 4.328125l0.3125 1.859375q-0.890625 0.203125 -1.59375 0.203125q-1.15625 0 -1.796875 -0.359375q-0.625 -0.375 -0.890625 -0.96875q-0.25 -0.59375 -0.25 -2.484375l0 -7.171875l-1.546875 0l0 -1.640625l1.546875 0l0 -3.078125l2.09375 -1.265625l0 4.34375l2.125 0l0 1.640625l-2.125 0l0 7.28125q0 0.90625 0.109375 1.171875q0.125 0.25 0.375 0.40625q0.25 0.140625 0.71875 0.140625q0.34375 0 0.921875 -0.078125zm10.589844 -2.125l2.171875 0.28125q-0.515625 1.90625 -1.90625 2.96875q-1.390625 1.046875 -3.5625 1.046875q-2.734375 0 -4.34375 -1.671875q-1.59375 -1.6875 -1.59375 -4.734375q0 -3.140625 1.609375 -4.875q1.625 -1.734375 4.203125 -1.734375q2.5 0 4.078125 1.703125q1.59375 1.703125 1.59375 4.78125q0 0.1875 -0.015625 0.5625l-9.28125 0q0.109375 2.046875 1.15625 3.140625q1.046875 1.09375 2.609375 1.09375q1.15625 0 1.96875 -0.609375q0.828125 -0.609375 1.3125 -1.953125zm-6.9375 -3.40625l6.953125 0q-0.140625 -1.5625 -0.796875 -2.359375q-1.0 -1.21875 -2.609375 -1.21875q-1.453125 0 -2.453125 0.984375q-0.984375 0.96875 -1.09375 2.59375zm11.769531 -7.328125l0 -2.4375l2.109375 0l0 2.4375l-2.109375 0zm0 14.75l0 -12.453125l2.109375 0l0 12.453125l-2.109375 0zm5.3164062 0l0 -12.453125l1.90625 0l0 1.78125q1.375 -2.0625 3.953125 -2.0625q1.125 0 2.0625 0.40625q0.953125 0.40625 1.421875 1.0625q0.46875 0.65625 0.65625 1.5625q0.125 0.578125 0.125 2.046875l0 7.65625l-2.109375 0l0 -7.578125q0 -1.28125 -0.25 -1.921875q-0.25 -0.640625 -0.875 -1.015625q-0.625 -0.390625 -1.46875 -0.390625q-1.34375 0 -2.328125 0.859375q-0.984375 0.859375 -0.984375 3.25l0 6.796875l-2.109375 0zm11.410156 4.765625l0 -1.515625l13.984375 0l0 1.515625l-13.984375 0zm15.472656 -4.765625l0 -17.1875l6.4375 0q1.96875 0 3.15625 0.53125q1.1875 0.515625 1.859375 1.609375q0.6875 1.078125 0.6875 2.265625q0 1.09375 -0.609375 2.078125q-0.59375 0.96875 -1.796875 1.5625q1.5625 0.453125 2.390625 1.5625q0.84375 1.09375 0.84375 2.59375q0 1.203125 -0.515625 2.25q-0.5 1.03125 -1.25 1.59375q-0.75 0.5625 -1.890625 0.859375q-1.125 0.28125 -2.765625 0.28125l-6.546875 0zm2.265625 -9.96875l3.71875 0q1.515625 0 2.171875 -0.1875q0.859375 -0.265625 1.296875 -0.859375q0.4375 -0.59375 0.4375 -1.5q0 -0.859375 -0.40625 -1.5q-0.40625 -0.65625 -1.171875 -0.890625q-0.765625 -0.25 -2.609375 -0.25l-3.4375 0l0 5.1875zm0 7.9375l4.28125 0q1.09375 0 1.546875 -0.078125q0.78125 -0.140625 1.3125 -0.46875q0.53125 -0.328125 0.859375 -0.953125q0.34375 -0.625 0.34375 -1.453125q0 -0.953125 -0.5 -1.65625q-0.484375 -0.71875 -1.359375 -1.0q-0.875 -0.296875 -2.515625 -0.296875l-3.96875 0l0 5.90625z" fill-rule="nonzero"></path><path fill="#000000" fill-opacity="0.0" d="m426.98688 461.9685l151.1181 0l0 46.04724l-151.1181 0z" fill-rule="evenodd"></path><path fill="#595959" d="m437.84625 494.0085l0 -17.1875l6.46875 0q1.71875 0 2.625 0.171875q1.265625 0.203125 2.109375 0.796875q0.859375 0.59375 1.375 1.671875q0.53125 1.0625 0.53125 2.328125q0 2.203125 -1.40625 3.71875q-1.390625 1.515625 -5.03125 1.515625l-4.40625 0l0 6.984375l-2.265625 0zm2.265625 -9.015625l4.4375 0q2.203125 0 3.125 -0.8125q0.9375 -0.828125 0.9375 -2.3125q0 -1.078125 -0.546875 -1.84375q-0.546875 -0.765625 -1.4375 -1.015625q-0.578125 -0.15625 -2.125 -0.15625l-4.390625 0l0 6.140625zm13.4453125 9.015625l0 -12.453125l1.890625 0l0 1.890625q0.734375 -1.328125 1.34375 -1.75q0.625 -0.421875 1.359375 -0.421875q1.0625 0 2.171875 0.6875l-0.734375 1.953125q-0.765625 -0.453125 -1.546875 -0.453125q-0.6875 0 -1.25 0.421875q-0.546875 0.40625 -0.78125 1.140625q-0.34375 1.125 -0.34375 2.46875l0 6.515625l-2.109375 0zm7.2265625 -6.21875q0 -3.46875 1.921875 -5.125q1.609375 -1.390625 3.921875 -1.390625q2.5625 0 4.1875 1.6875q1.625 1.6875 1.625 4.640625q0 2.40625 -0.71875 3.78125q-0.71875 1.375 -2.09375 2.140625q-1.375 0.765625 -3.0 0.765625q-2.625 0 -4.234375 -1.671875q-1.609375 -1.6875 -1.609375 -4.828125zm2.171875 0q0 2.390625 1.03125 3.578125q1.046875 1.1875 2.640625 1.1875q1.5625 0 2.609375 -1.1875q1.046875 -1.203125 1.046875 -3.65625q0 -2.3125 -1.0625 -3.5q-1.046875 -1.1875 -2.59375 -1.1875q-1.59375 0 -2.640625 1.1875q-1.03125 1.1875 -1.03125 3.578125zm16.566406 4.328125l0.3125 1.859375q-0.890625 0.203125 -1.59375 0.203125q-1.15625 0 -1.796875 -0.359375q-0.625 -0.375 -0.890625 -0.96875q-0.25 -0.59375 -0.25 -2.484375l0 -7.171875l-1.546875 0l0 -1.640625l1.546875 0l0 -3.078125l2.09375 -1.265625l0 4.34375l2.125 0l0 1.640625l-2.125 0l0 7.28125q0 0.90625 0.109375 1.171875q0.125 0.25 0.375 0.40625q0.25 0.140625 0.71875 0.140625q0.34375 0 0.921875 -0.078125zm10.589844 -2.125l2.171875 0.28125q-0.515625 1.90625 -1.90625 2.96875q-1.390625 1.046875 -3.5625 1.046875q-2.734375 0 -4.34375 -1.671875q-1.59375 -1.6875 -1.59375 -4.734375q0 -3.140625 1.609375 -4.875q1.625 -1.734375 4.203125 -1.734375q2.5 0 4.078125 1.703125q1.59375 1.703125 1.59375 4.78125q0 0.1875 -0.015625 0.5625l-9.28125 0q0.109375 2.046875 1.15625 3.140625q1.046875 1.09375 2.609375 1.09375q1.15625 0 1.96875 -0.609375q0.828125 -0.609375 1.3125 -1.953125zm-6.9375 -3.40625l6.953125 0q-0.140625 -1.5625 -0.796875 -2.359375q-1.0 -1.21875 -2.609375 -1.21875q-1.453125 0 -2.453125 0.984375q-0.984375 0.96875 -1.09375 2.59375zm11.769531 -7.328125l0 -2.4375l2.109375 0l0 2.4375l-2.109375 0zm0 14.75l0 -12.453125l2.109375 0l0 12.453125l-2.109375 0zm5.3164062 0l0 -12.453125l1.90625 0l0 1.78125q1.375 -2.0625 3.953125 -2.0625q1.125 0 2.0625 0.40625q0.953125 0.40625 1.421875 1.0625q0.46875 0.65625 0.65625 1.5625q0.125 0.578125 0.125 2.046875l0 7.65625l-2.109375 0l0 -7.578125q0 -1.28125 -0.25 -1.921875q-0.25 -0.640625 -0.875 -1.015625q-0.625 -0.390625 -1.46875 -0.390625q-1.34375 0 -2.328125 0.859375q-0.984375 0.859375 -0.984375 3.25l0 6.796875l-2.109375 0zm11.410156 4.765625l0 -1.515625l13.984375 0l0 1.515625l-13.984375 0zm13.675781 -4.765625l6.59375 -17.1875l2.453125 0l7.03125 17.1875l-2.59375 0l-2.0 -5.203125l-7.1875 0l-1.890625 5.203125l-2.40625 0zm4.953125 -7.0625l5.828125 0l-1.796875 -4.75q-0.8125 -2.171875 -1.21875 -3.5625q-0.328125 1.65625 -0.921875 3.28125l-1.890625 5.03125z" fill-rule="nonzero"></path><path fill="#000000" fill-opacity="0.0" d="m281.07086 349.4672l666.6142 0" fill-rule="evenodd"></path><path stroke="#595959" stroke-width="8.0" stroke-linejoin="round" stroke-linecap="butt" d="m281.07086 349.4672l666.6142 0" fill-rule="evenodd"></path><path fill="#000000" fill-opacity="0.0" d="m55.913387 322.30185l225.51181 0l0 70.33069l-225.51181 0z" fill-rule="evenodd"></path><path fill="#595959" d="m99.538475 354.34183l0 -17.1875l2.328125 0l9.03125 13.5l0 -13.5l2.171875 0l0 17.1875l-2.328125 0l-9.015625 -13.5l0 13.5l-2.1875 0zm16.300781 -6.21875q0 -3.46875 1.921875 -5.125q1.609375 -1.390625 3.921875 -1.390625q2.5625 0 4.1875 1.6875q1.625 1.6875 1.625 4.640625q0 2.40625 -0.71875 3.78125q-0.71875 1.375 -2.09375 2.140625q-1.375 0.765625 -3.0 0.765625q-2.625 0 -4.234375 -1.671875q-1.609375 -1.6875 -1.609375 -4.828125zm2.171875 0q0 2.390625 1.03125 3.578125q1.046875 1.1875 2.640625 1.1875q1.5625 0 2.609375 -1.1875q1.046875 -1.203125 1.046875 -3.65625q0 -2.3125 -1.0625 -3.5q-1.046875 -1.1875 -2.59375 -1.1875q-1.59375 0 -2.640625 1.1875q-1.03125 1.1875 -1.03125 3.578125zm15.425789 6.21875l-4.734375 -12.453125l2.21875 0l2.671875 7.453125q0.4375 1.21875 0.796875 2.515625q0.28125 -0.984375 0.78125 -2.375l2.765625 -7.59375l2.171875 0l-4.703125 12.453125l-1.96875 0zm17.0625 -4.015625l2.171875 0.28125q-0.515625 1.90625 -1.90625 2.96875q-1.390625 1.046875 -3.5625 1.046875q-2.734375 0 -4.34375 -1.671875q-1.59375 -1.6875 -1.59375 -4.734375q0 -3.140625 1.609375 -4.875q1.625 -1.734375 4.203125 -1.734375q2.5 0 4.078125 1.703125q1.59375 1.703125 1.59375 4.78125q0 0.1875 -0.015625 0.5625l-9.28125 0q0.109375 2.046875 1.15625 3.140625q1.046875 1.09375 2.609375 1.09375q1.15625 0 1.96875 -0.609375q0.828125 -0.609375 1.3125 -1.953125zm-6.9375 -3.40625l6.953125 0q-0.140625 -1.5625 -0.796875 -2.359375q-1.0 -1.21875 -2.609375 -1.21875q-1.453125 0 -2.453125 0.984375q-0.984375 0.96875 -1.09375 2.59375zm11.707031 7.421875l0 -17.1875l2.109375 0l0 17.1875l-2.109375 0zm16.6875 0l0 -15.15625l-5.65625 0l0 -2.03125l13.625 0l0 2.03125l-5.6875 0l0 15.15625l-2.28125 0zm10.003906 0l0 -12.453125l1.890625 0l0 1.890625q0.734375 -1.328125 1.34375 -1.75q0.625 -0.421875 1.359375 -0.421875q1.0625 0 2.171875 0.6875l-0.734375 1.953125q-0.765625 -0.453125 -1.546875 -0.453125q-0.6875 0 -1.25 0.421875q-0.546875 0.40625 -0.78125 1.140625q-0.34375 1.125 -0.34375 2.46875l0 6.515625l-2.109375 0zm16.132812 -1.53125q-1.171875 0.984375 -2.265625 1.40625q-1.078125 0.40625 -2.3125 0.40625q-2.046875 0 -3.15625 -1.0q-1.09375 -1.0 -1.09375 -2.5625q0 -0.921875 0.40625 -1.671875q0.421875 -0.75 1.09375 -1.203125q0.671875 -0.46875 1.515625 -0.703125q0.625 -0.15625 1.875 -0.3125q2.5625 -0.3125 3.765625 -0.734375q0.015625 -0.421875 0.015625 -0.546875q0 -1.28125 -0.609375 -1.8125q-0.796875 -0.71875 -2.390625 -0.71875q-1.5 0 -2.203125 0.53125q-0.703125 0.515625 -1.046875 1.84375l-2.0625 -0.28125q0.28125 -1.328125 0.921875 -2.140625q0.640625 -0.8125 1.859375 -1.25q1.21875 -0.453125 2.828125 -0.453125q1.59375 0 2.59375 0.375q1.0 0.375 1.46875 0.953125q0.46875 0.5625 0.65625 1.4375q0.09375 0.53125 0.09375 1.9375l0 2.8125q0 2.9375 0.140625 3.71875q0.140625 0.78125 0.53125 1.5l-2.203125 0q-0.328125 -0.65625 -0.421875 -1.53125zm-0.171875 -4.71875q-1.15625 0.46875 -3.453125 0.796875q-1.296875 0.1875 -1.84375 0.421875q-0.53125 0.234375 -0.828125 0.6875q-0.28125 0.453125 -0.28125 1.0q0 0.84375 0.625 1.40625q0.640625 0.5625 1.875 0.5625q1.21875 0 2.171875 -0.53125q0.953125 -0.53125 1.390625 -1.453125q0.34375 -0.71875 0.34375 -2.109375l0 -0.78125zm5.3945312 6.25l0 -12.453125l1.90625 0l0 1.78125q1.375 -2.0625 3.953125 -2.0625q1.125 0 2.0625 0.40625q0.953125 0.40625 1.421875 1.0625q0.46875 0.65625 0.65625 1.5625q0.125 0.578125 0.125 2.046875l0 7.65625l-2.109375 0l0 -7.578125q0 -1.28125 -0.25 -1.921875q-0.25 -0.640625 -0.875 -1.015625q-0.625 -0.390625 -1.46875 -0.390625q-1.34375 0 -2.328125 0.859375q-0.984375 0.859375 -0.984375 3.25l0 6.796875l-2.109375 0zm12.503906 -3.71875l2.09375 -0.328125q0.171875 1.25 0.96875 1.921875q0.8125 0.671875 2.25 0.671875q1.453125 0 2.15625 -0.59375q0.703125 -0.59375 0.703125 -1.390625q0 -0.71875 -0.625 -1.125q-0.421875 -0.28125 -2.15625 -0.71875q-2.3125 -0.578125 -3.21875 -1.0q-0.890625 -0.4375 -1.359375 -1.1875q-0.453125 -0.765625 -0.453125 -1.671875q0 -0.828125 0.375 -1.53125q0.390625 -0.71875 1.046875 -1.1875q0.484375 -0.359375 1.328125 -0.609375q0.859375 -0.265625 1.828125 -0.265625q1.46875 0 2.578125 0.421875q1.109375 0.421875 1.625 1.15625q0.53125 0.71875 0.734375 1.921875l-2.0625 0.28125q-0.140625 -0.96875 -0.8125 -1.5q-0.671875 -0.546875 -1.90625 -0.546875q-1.453125 0 -2.078125 0.484375q-0.625 0.484375 -0.625 1.125q0 0.40625 0.265625 0.734375q0.25 0.34375 0.8125 0.5625q0.3125 0.125 1.859375 0.546875q2.234375 0.59375 3.109375 0.984375q0.890625 0.375 1.390625 1.109375q0.515625 0.71875 0.515625 1.796875q0 1.046875 -0.625 1.984375q-0.609375 0.9375 -1.765625 1.453125q-1.15625 0.5 -2.625 0.5q-2.421875 0 -3.703125 -1.0q-1.265625 -1.015625 -1.625 -3.0zm20.96875 -0.84375l2.078125 0.265625q-0.34375 2.15625 -1.75 3.375q-1.390625 1.203125 -3.4375 1.203125q-2.546875 0 -4.109375 -1.671875q-1.546875 -1.671875 -1.546875 -4.78125q0 -2.015625 0.671875 -3.53125q0.671875 -1.515625 2.03125 -2.265625q1.359375 -0.765625 2.96875 -0.765625q2.03125 0 3.3125 1.03125q1.296875 1.03125 1.65625 2.90625l-2.046875 0.328125q-0.296875 -1.265625 -1.046875 -1.890625q-0.734375 -0.640625 -1.796875 -0.640625q-1.59375 0 -2.59375 1.15625q-0.984375 1.140625 -0.984375 3.609375q0 2.5 0.953125 3.640625q0.96875 1.140625 2.515625 1.140625q1.234375 0 2.0625 -0.765625q0.84375 -0.765625 1.0625 -2.34375zm3.859375 4.5625l0 -12.453125l1.890625 0l0 1.890625q0.734375 -1.328125 1.34375 -1.75q0.625 -0.421875 1.359375 -0.421875q1.0625 0 2.171875 0.6875l-0.734375 1.953125q-0.765625 -0.453125 -1.546875 -0.453125q-0.6875 0 -1.25 0.421875q-0.546875 0.40625 -0.78125 1.140625q-0.34375 1.125 -0.34375 2.46875l0 6.515625l-2.109375 0zm8.0234375 -14.75l0 -2.4375l2.109375 0l0 2.4375l-2.109375 0zm0 14.75l0 -12.453125l2.109375 0l0 12.453125l-2.109375 0zm5.3164062 4.765625l0 -17.21875l1.921875 0l0 1.625q0.6875 -0.953125 1.53125 -1.421875q0.859375 -0.484375 2.078125 -0.484375q1.59375 0 2.8125 0.828125q1.21875 0.8125 1.84375 2.3125q0.625 1.5 0.625 3.28125q0 1.90625 -0.6875 3.4375q-0.6875 1.53125 -2.0 2.34375q-1.296875 0.8125 -2.734375 0.8125q-1.0625 0 -1.90625 -0.4375q-0.828125 -0.453125 -1.375 -1.140625l0 6.0625l-2.109375 0zm1.921875 -10.921875q0 2.40625 0.96875 3.5625q0.96875 1.140625 2.359375 1.140625q1.40625 0 2.40625 -1.1875q1.0 -1.1875 1.0 -3.6875q0 -2.375 -0.984375 -3.5625q-0.96875 -1.1875 -2.328125 -1.1875q-1.359375 0 -2.390625 1.265625q-1.03125 1.25 -1.03125 3.65625zm16.035156 4.265625l0.3125 1.859375q-0.890625 0.203125 -1.59375 0.203125q-1.15625 0 -1.796875 -0.359375q-0.625 -0.375 -0.890625 -0.96875q-0.25 -0.59375 -0.25 -2.484375l0 -7.171875l-1.546875 0l0 -1.640625l1.546875 0l0 -3.078125l2.09375 -1.265625l0 4.34375l2.125 0l0 1.640625l-2.125 0l0 7.28125q0 0.90625 0.109375 1.171875q0.125 0.25 0.375 0.40625q0.25 0.140625 0.71875 0.140625q0.34375 0 0.921875 -0.078125z" fill-rule="nonzero"></path><path fill="#17880d" d="m597.705 120.04738l0 0c0 -3.757347 3.0459595 -6.8032837 6.8032837 -6.8032837l89.574524 0c1.8043823 0 3.53479 0.716774 4.810669 1.9926376c1.2758789 1.2758636 1.9926147 3.0063019 1.9926147 4.810646l0 27.212326c0 3.7573547 -3.0458984 6.8032837 -6.8032837 6.8032837l-89.574524 0l0 0c-3.7573242 0 -6.8032837 -3.045929 -6.8032837 -6.8032837z" fill-rule="evenodd"></path><path fill="#17880d" d="m658.8932 178.65106l0 0c0 -3.7573547 3.0459595 -6.803299 6.8032837 -6.803299l117.07062 0c1.8043213 0 3.53479 0.7167816 4.810608 1.9926453c1.2758789 1.2758636 1.9926758 3.0063019 1.9926758 4.8106537l0 27.212326c0 3.7573395 -3.0459595 6.8032837 -6.8032837 6.8032837l-117.07062 0c-3.7573242 0 -6.8032837 -3.0459442 -6.8032837 -6.8032837z" fill-rule="evenodd"></path><path fill="#17880d" d="m615.4629 237.25473l0 0c0 -3.7573547 3.0459595 -6.8032837 6.8033447 -6.8032837l140.09418 0c1.8043823 0 3.53479 0.71676636 4.810669 1.99263c1.2758789 1.2758636 1.9926147 3.0063019 1.9926147 4.8106537l0 27.21231c0 3.7573547 -3.0458984 6.803314 -6.8032837 6.803314l-140.09418 0c-3.7573853 0 -6.8033447 -3.0459595 -6.8033447 -6.803314z" fill-rule="evenodd"></path><path fill="#17880d" d="m582.973 335.8584l0 0c0 -3.7573547 3.0458984 -6.8032837 6.8032837 -6.8032837l192.97607 0c1.8043823 0 3.53479 0.71676636 4.810669 1.9926453c1.2758789 1.2758484 1.9926147 3.0062866 1.9926147 4.8106384l0 27.212341c0 3.7573547 -3.0458984 6.8032837 -6.8032837 6.8032837l-192.97607 0l0 0c-3.7573853 0 -6.8032837 -3.045929 -6.8032837 -6.8032837z" fill-rule="evenodd"></path><path fill="#674ea7" d="m433.7874 335.86234l0 0c0 -3.7573547 3.045929 -6.8032837 6.8032837 -6.8032837l46.487915 0c1.8043213 0 3.53479 0.71676636 4.8106384 1.9926453c1.2758789 1.2758484 1.9926453 3.0062866 1.9926453 4.8106384l0 27.212341c0 3.7573547 -3.045929 6.8032837 -6.8032837 6.8032837l-46.487915 0c-3.7573547 0 -6.8032837 -3.045929 -6.8032837 -6.8032837z" fill-rule="evenodd"></path><path fill="#000000" fill-opacity="0.0" d="m26.622047 227.31758l0 -128.7244l81.00787 0l0 128.7244z" fill-rule="evenodd"></path><path fill="#000000" d="m81.70204 213.8332l-34.35937 0l0 -4.546875l34.35937 0l0 4.546875zm0 -12.0234375l-24.890621 0l0 -3.796875l3.53125 0q-4.09375 -2.734375 -4.09375 -7.921875q0 -2.25 0.8125 -4.125q0.796875 -1.890625 2.109375 -2.828125q1.3125 -0.9375 3.125 -1.3125q1.171875 -0.234375 4.093746 -0.234375l15.3125 0l0 4.21875l-15.140625 0q-2.5781212 0 -3.8593712 0.5q-1.28125 0.484375 -2.03125 1.734375q-0.765625 1.25 -0.765625 2.9375q0 2.703125 1.71875 4.65625q1.703125 1.953125 6.484371 1.953125l13.59375 0l0 4.21875zm9.546883 -26.695312l-34.437504 0l0 -3.84375l3.234375 0q-1.90625 -1.359375 -2.84375 -3.0625q-0.953125 -1.71875 -0.953125 -4.15625q0 -3.1875 1.640625 -5.625q1.640625 -2.4375 4.625 -3.671875q2.9843712 -1.25 6.546871 -1.25q3.828125 0 6.890625 1.375q3.046875 1.375 4.6875 3.984375q1.625 2.609375 1.625 5.5q0 2.109375 -0.890625 3.78125q-0.890625 1.671875 -2.25 2.75l12.125008 0l0 4.21875zm-21.859383 -3.8125q4.8125 0 7.109375 -1.9375q2.296875 -1.953125 2.296875 -4.71875q0 -2.8125 -2.375 -4.8125q-2.390625 -2.015625 -7.375 -2.015625q-4.765625 0 -7.124996 1.96875q-2.375 1.953125 -2.375 4.671875q0 2.6875 2.53125 4.765625q2.5156212 2.078125 7.312496 2.078125zm12.3125 -39.195312l-3.65625 0q4.21875 2.90625 4.21875 7.90625q0 2.203125 -0.84375 4.109375q-0.84375 1.90625 -2.125 2.84375q-1.28125 0.921875 -3.125 1.296875q-1.25 0.25 -3.9375 0.25l-15.421871 0l0 -4.21875l13.796871 0q3.3125 0 4.453125 -0.25q1.671875 -0.40625 2.625 -1.6875q0.9375 -1.296875 0.9375 -3.1875q0 -1.90625 -0.96875 -3.5625q-0.96875 -1.671875 -2.640625 -2.359375q-1.6875 -0.6875 -4.875 -0.6875l-13.328121 0l0 -4.21875l24.890621 0l0 3.765625zm-3.78125 -19.58593l3.734375 -0.609375q0.375 1.78125 0.375 3.1875q0 2.296875 -0.71875 3.5625q-0.734375 1.265625 -1.921875 1.78125q-1.1875 0.515625 -4.984375 0.515625l-14.312496 0l0 3.09375l-3.28125 0l0 -3.09375l-6.171875 0l-2.53125 -4.203125l8.703125 0l0 -4.234375l3.28125 0l0 4.234375l14.546871 0q1.8125 0 2.328125 -0.21875q0.515625 -0.21875 0.828125 -0.71875q0.296875 -0.515625 0.296875 -1.453125q0 -0.703125 -0.171875 -1.84375z" fill-rule="nonzero"></path><path fill="#000000" fill-opacity="0.0" d="m26.622047 502.1916l0 -164.22046l81.00787 0l0 164.22046z" fill-rule="evenodd"></path><path fill="#000000" d="m64.96767 490.86346q-8.562496 0 -13.390621 -4.59375q-4.84375 -4.59375 -4.84375 -11.859375q0 -4.75 2.28125 -8.5625q2.265625 -3.828125 6.328125 -5.828125q4.0625 -2.015625 9.218746 -2.015625q5.234375 0 9.359375 2.109375q4.125 2.109375 6.25 5.984375q2.125 3.859375 2.125 8.34375q0 4.84375 -2.34375 8.671875q-2.359375 3.8125 -6.40625 5.78125q-4.0625 1.96875 -8.578125 1.96875zm0.0625 -4.6875q6.21875 0 9.796875 -3.328125q3.5625 -3.34375 3.5625 -8.390625q0 -5.125 -3.609375 -8.4375q-3.609375 -3.328125 -10.234375 -3.328125q-4.203121 0 -7.328121 1.421875q-3.125 1.421875 -4.84375 4.15625q-1.734375 2.71875 -1.734375 6.125q0 4.828125 3.328125 8.3125q3.3125 3.46875 11.062496 3.46875zm16.671875 -49.804688l-3.65625 0q4.21875 2.90625 4.21875 7.90625q0 2.203125 -0.84375 4.109375q-0.84375 1.90625 -2.125 2.84375q-1.28125 0.921875 -3.125 1.296875q-1.25 0.25 -3.9375 0.25l-15.421871 0l0 -4.21875l13.796871 0q3.3125 0 4.453125 -0.25q1.671875 -0.40625 2.625 -1.6875q0.9375 -1.296875 0.9375 -3.1875q0 -1.90625 -0.96875 -3.5625q-0.96875 -1.671875 -2.640625 -2.359375q-1.6875 -0.6875 -4.875 -0.6875l-13.328121 0l0 -4.21875l24.890621 0l0 3.765625zm-3.78125 -19.585938l3.734375 -0.609375q0.375 1.78125 0.375 3.1875q0 2.296875 -0.71875 3.5625q-0.734375 1.265625 -1.921875 1.78125q-1.1875 0.515625 -4.984375 0.515625l-14.312496 0l0 3.09375l-3.28125 0l0 -3.09375l-6.171875 0l-2.53125 -4.203125l8.703125 0l0 -4.234375l3.28125 0l0 4.234375l14.546871 0q1.8125 0 2.328125 -0.21875q0.515625 -0.21875 0.828125 -0.71875q0.296875 -0.515625 0.296875 -1.453125q0 -0.703125 -0.171875 -1.84375zm13.328133 -4.1328125l-34.437504 0l0 -3.84375l3.234375 0q-1.90625 -1.359375 -2.84375 -3.0625q-0.953125 -1.71875 -0.953125 -4.15625q0 -3.1875 1.640625 -5.625q1.640625 -2.4375 4.625 -3.671875q2.9843712 -1.25 6.546871 -1.25q3.828125 0 6.890625 1.375q3.046875 1.375 4.6875 3.984375q1.625 2.609375 1.625 5.5q0 2.109375 -0.890625 3.78125q-0.890625 1.671875 -2.25 2.75l12.125008 0l0 4.21875zm-21.859383 -3.8125q4.8125 0 7.109375 -1.9375q2.296875 -1.953125 2.296875 -4.71875q0 -2.8125 -2.375 -4.8125q-2.390625 -2.015625 -7.375 -2.015625q-4.765625 0 -7.124996 1.96875q-2.375 1.953125 -2.375 4.671875q0 2.6875 2.53125 4.765625q2.5156212 2.078125 7.312496 2.078125zm12.3125 -39.195312l-3.65625 0q4.21875 2.90625 4.21875 7.90625q0 2.203125 -0.84375 4.109375q-0.84375 1.90625 -2.125 2.84375q-1.28125 0.921875 -3.125 1.296875q-1.25 0.25 -3.9375 0.25l-15.421871 0l0 -4.21875l13.796871 0q3.3125 0 4.453125 -0.25q1.671875 -0.40625 2.625 -1.6875q0.9375 -1.296875 0.9375 -3.1875q0 -1.90625 -0.96875 -3.5625q-0.96875 -1.671875 -2.640625 -2.359375q-1.6875 -0.6875 -4.875 -0.6875l-13.328121 0l0 -4.21875l24.890621 0l0 3.765625zm-3.78125 -19.585938l3.734375 -0.609375q0.375 1.78125 0.375 3.1875q0 2.296875 -0.71875 3.5625q-0.734375 1.265625 -1.921875 1.78125q-1.1875 0.515625 -4.984375 0.515625l-14.312496 0l0 3.09375l-3.28125 0l0 -3.09375l-6.171875 0l-2.53125 -4.203125l8.703125 0l0 -4.234375l3.28125 0l0 4.234375l14.546871 0q1.8125 0 2.328125 -0.21875q0.515625 -0.21875 0.828125 -0.71875q0.296875 -0.515625 0.296875 -1.453125q0 -0.703125 -0.171875 -1.84375z" fill-rule="nonzero"></path></g></svg>

